<svg id="Layer_1" data-name="Layer 1" xmlns="http://www.w3.org/2000/svg" xmlns:xlink="http://www.w3.org/1999/xlink" viewBox="0 0 1370 768"><defs><style>.cls-1{fill:url(#linear-gradient);}.cls-2{fill:#fff;stroke:#000;stroke-miterlimit:10;}</style><linearGradient id="linear-gradient" x1="609.4" y1="901.32" x2="725.15" y2="356.76" gradientUnits="userSpaceOnUse"><stop offset="0.45" stop-color="#28770b"/><stop offset="0.66" stop-color="#2a780b"/><stop offset="0.74" stop-color="#317a0b"/><stop offset="0.8" stop-color="#3c7f0c"/><stop offset="0.84" stop-color="#4d860c"/><stop offset="0.88" stop-color="#638e0d"/><stop offset="0.91" stop-color="#7f990e"/><stop offset="0.94" stop-color="#9fa60f"/><stop offset="0.97" stop-color="#c4b410"/><stop offset="1" stop-color="#edc411"/><stop offset="1" stop-color="#f2c611"/></linearGradient></defs><title>hill-with-animals</title><path class="cls-1" d="M1370.75,772H1V311.06C104.43,244.79,228,414.5,382.6,426.55c260,20.26,339.47,232.73,536.25,27.11,111.49-116.49,330.39,109.46,451.9,47.2Z"/><path class="cls-2" d="M214.34,431.41c2.47,5.46,11.3,6.79,16.74,2.22,4.59-3.87,6.76-9,7.42-14.89.74-6.72,3.79-11.94,10.51-15.7a38.54,38.54,0,0,0,.49,5.14c.89,3.64,2.17,7.18,2.9,10.84.55,2.8,1.49,6.12.51,8.47a58.22,58.22,0,0,1-7.85,13c-2.24,2.88-2.67,5.68-2.51,9,.13,2.78.42,6-.75,8.31-2.25,4.45-2.24,8.92-2.09,13.61.08,2.44,1,4.16,3.27,4.4a163.32,163.32,0,0,0,16.53,1c2.25,0,3.59-1.81,2.32-4.34a29,29,0,0,0-2.5-4.59c-3.81-5.07-4.25-9.63-1-15.12,2.21-3.74,4.65-7.34,7.11-11.21.95.95,1.26,1.12,1.28,1.32a29.16,29.16,0,0,0,1.78,7.45l.12.34c.94,2.5,2.09,5,3.29,7.65A63.07,63.07,0,0,1,276.5,475c.51,3.48,1.43,6,4.83,6.38a84.65,84.65,0,0,0,15.18.36c2.51-.19,3.87-2.44,2.14-5.15-3.17-5-6.22-10.05-9.64-14.86-4.06-5.71-3.93-11.83-2.5-18.18.69-3,1.58-6,2.46-9.25h22.89l.95-1.32a45.67,45.67,0,0,1,.78,6.73c-.06,3.52-.74,7-.77,10.54a22.39,22.39,0,0,1-4.23,13.26c-2.53,3.56-4.85,8-2.65,12.09s7.08,4,11.31,4.11a48.78,48.78,0,0,0,6.51-.33c3.73-.43,5.36-3.24,3.13-6.21-3.78-5-3.89-9.56-.08-14.61,1.31-1.72,1.55-4.27,2.15-6.48,2-7.25,3.93-14.52,5.86-21.7,3.17,1.15,5.42,1.82,7.53,2.78a18.45,18.45,0,0,1,4,2.58c4.39,3.56,8.52,7.47,13.11,10.75s5.33,4.21,3.66,9.65c-2.28,7.44,2.71,13.09,11.3,12.76,1.46-.06,2.95,0,4.4-.18,3.43-.4,3.87-1.88,3-5.17a40.58,40.58,0,0,1-1.49-11.82c.19-4.14-.54-7.57-3.66-10.25a38.74,38.74,0,0,1-11.89-18.51c-1-3.16-3.15-5.95-4.69-9-.52-1-1.33-2.48-1-3.27,1.49-3.36,3.37-6.54,5.42-10.38l3.44,6.21L373.93,395l19.35-1.05.81.42,0-.12a1.13,1.13,0,0,1,.1.13l.14,0a54,54,0,0,1,1.36,6,12.65,12.65,0,0,1-2.45,9.69c-1.16-.61-3.07-1.18-3.1-1.84a15.87,15.87,0,0,1,1.09-6.35c.31-.82,2-1.1,3.11-1.63-.3-.53-.6-1.06-.91-1.58l-3.83-1.53c0,1,.39,2.26-.09,2.86-1.88,2.41-2.35,7.21-.46,9.43,1,1.11,2.05,2.46,3.49,1.52h0l0,0-.07.08c.66-.27,1.49-.41,1.89-.89,3.21-3.9,3.29-11.09.44-15.64l15.54,3-3.74,1,3.5,2.53L406,402.26l1,.28c-1,2.83-1.49,6.08-3.21,8.4a33.7,33.7,0,0,1-8.36,7.88c-3.78,2.54-13.37-2.85-12.07-8.84.87-4.05,1.88-8.05,2.83-12.08-1.39,4.48-3.48,8.88-4,13.46-.6,5.32,6.76,10.93,12.28,10.1,7.27-1.09,11.92-5.33,14.16-12.25,1.31-4.07,2.49-8.17,3.78-12.42,3.79-1.47,10.88-1.43,13.45-6.55-1.79.89-5.18,3.79-7.08,4.24a39.4,39.4,0,0,1-25.36-2.4c0-1.18-.38-3,.2-3.42a5.42,5.42,0,0,1,4-.71,56.15,56.15,0,0,1,7.1,2.73l-.1-.07c5.49,2.23,15.6,1.85,21.21-.37-3.14.18-10.85,1.14-14,1.32l0-1,9.36-1.6c-6.29,1.06-11.53.39-13.72-7.27-.54-1.87-3-3.2-4.66-4.73l.2.24-1-.21-2.22,1.16,5,1-4.3,1.94a23.7,23.7,0,0,1,4.5.11c.32.07.35,1.44.66,2.86.68,1.61,1.61,3.79,2.73,6.38l-3.83.17s0,0,0,0l-.05,0h0a42.73,42.73,0,0,0-6.05-3.5c-1.34-.53-3.76-.82-4.46-.07-3.86,4.12-6.32,1.08-9.52-1.08.55.87,1.06,1.76,1.64,2.6.69,1,1.42,2,2.13,2.95-1.53-1.41-3-2.86-4.57-4.23-1.77-1.58-3.39-4.32-7.16-.53,4.82-.48,6.39,1.71,6.84,5.23-1.65.54-3.27,1.41-5,1.58-5.6.55-11.61-.15-15.11,6.23,1.31-7.95-4.14-15.47.26-23-1.27,1.1-2.59,2.26-2.71,3.53-.32,3.34-.11,6.72-.11,10.08v14.09c-5.72-.84-10.63-.65-12-6.65-.18-.78-1.15-1.53-1.93-2-3-1.8-7.15-2.4-7.36-7.12,0-.26-.54-.67-.88-.73-3.39-.58-5.89-2.24-8.68-4.49-3.57-2.88-6.33-6.17-6.43-10.11-.11-4.83,1.59-9.75,2.85-14.55a5.28,5.28,0,0,1,3-3c8.83-3.3,17.69-5,27.2-2.14,4.49,1.36,7.63,3.07,8.47,7.84a7.1,7.1,0,0,1,0,1.24l-1.82-1.92-2.89,9.78c1.56-1.34,2.25-3.42,3.56-4,3.61-1.47,3.1-3.93,2.33-6.63-.47-1.6-1.16-3.14-2.07-5.57,4,.5,7.55.26,10.53,1.47C380,358.1,385,361.1,390,363.75l-.08-.09.16.13c0-.07-.05-.14-.07-.22l.25.3h0l.55.69c1.49,1.77,3.07,3.47,4.39,5.35a20.87,20.87,0,0,1,1.64,4.08l3.35.74-1,1.64,2.88.63.52-.28a3.07,3.07,0,0,0,.26.25c-2.11-2.56-4.12-5.21-6.39-7.61-1.48-1.57-4.59-4.49-6.59-6.23-.11-.47-.22-.94-.53-1.12-7.84-4.76-15.39-9.63-25.58-8.19-4.74.66-9.9-1.88-14.92-2.66a25.38,25.38,0,0,0-8.2-.14A62.31,62.31,0,0,0,329,354.4c-1.65.65-2.89,2.51-4.12,4a8.41,8.41,0,0,0-1,2.66c-.95,2.75-1.4,7.45-3,7.86a22,22,0,0,1-11.93-.5c-11.2-3.66-22.35-3.68-33.68-1.18-12.53,2.77-20.44,11-26.33,21.83a25.08,25.08,0,0,1-4.83,6.4c-6.52,6.08-9.16,13.88-10.6,22.33-1.16,6.86-4.84,10.54-11.66,12C219.39,430.29,216.85,430.86,214.34,431.41ZM366,460c.58-1.86,1.32-3.67,2.19-5.94.57,1.79,1.38,3.18,1.3,4.51-.05.86-1.35,1.69-2.21,2.4C367.18,461,365.94,460.15,366,460Zm-28.85-46.75.93-.31c.51,1.31,1.37,2.59,1.46,3.93.26,3.75,1.26,6.73,5,8.57,1.26.62,1.8,2.73,3,4.67-3.57-.27-6.68.08-7.58-3.56C338.88,422.12,338.08,417.65,337.15,413.21ZM327,426.69l.07-.06h.18c4.66-.92,6-4.46,6.26-8.9l1,.17c.63,2.87,1.27,5.74,2.1,9.56l-9.36-.83Zm-1.84-3.75c4.82-4.3,4.74-9.67,4.2-15.4-.23-2.49.95-5.1,1.48-7.65l1.11.27c.21,3.32.27,6.21.18,8.7,0,.52,0,1-.07,1.51C331.54,417.69,329.45,421.31,325.13,422.94Zm-10.47,27.52c.34.09.66.2,1,.31l-.42,1C315.05,451.3,314.85,450.88,314.66,450.46ZM282,393.08c4.16.43,2.24,3.59,2.27,5.21l5.55-4.55.81,1.11c-6.3,6-7.61,13.37-5.63,21.69C280.77,408.94,281,401,282,393.08Zm-11.9-7.49c-.18-6.34,4.5-12.16,9-11.85Zm-16,83.85c.06.3.11.6.16.9-1,1.48-1.92,3-3.24,5l-5.3-1.43c.15-.42.28-.83.43-1.24.74.36,1.49.73,1.79.89Z"/><path class="cls-2" d="M1160.41,537.35l3.84-5.15c-3.73.32-6.57.67-9.42.8-9.42.43-18.71-.06-27.53-3.9a103.88,103.88,0,0,0-10.8-4.44c-5.39-1.66-10.68-.81-15.75,1.63-6.68,3.22-13.39,6.38-20.09,9.57a6.35,6.35,0,0,0-1.51.7c-1.72,1.57-3.38,3.21-5.16,4.92-3.72.9-8,1.81-12.14,2.95a100.87,100.87,0,0,0-12.15,4.18c4.57,4.7,10.32,4.84,16.06,5.32l-2.7.3c-1,5.08-4.55,8.55-7.72,12.15-3,3.37-6,6.57-7.58,11a3,3,0,0,1-2.46,1.2c-4.53-.31-6.76-2.5-8-7.52l-.62-2.46c-3.77,8.86-4.44,14.75,5,20.81a4.62,4.62,0,0,1,1.82,2.57c.92,3.69,7,9.1,11,9.35a19.28,19.28,0,0,0,12.5-3.14,9.38,9.38,0,0,0,4.54-7.3c8,.87,15.4.25,20.3-7.77-2.46,3.2-.3,4.94,1.7,6.47,2.82,2.15,4,5,4.67,8.38a116.67,116.67,0,0,0,3.47,14.29c1,3,0,4.88-2.06,6.68-2.32,2-4.31,4.14-3.81,7.68.32,2.36,1.77,4.31,4.23,4.28,6.79-.09,13.58-.27,20.36-.58,2.87-.13,4.67-2,5.27-4.86,1.35-.26,2.73-.48,4.08-.81a4.79,4.79,0,0,0,3.47-6c-.71-2.77-1.36-5.55-2.08-8.48l-6.92-1.43c.23,4.5.46,8.82.69,13.13l-.67.07q-1.27-8.49-2.54-17c3.63,4.23,8.83,3.8,13.22,4.81a93,93,0,0,0,33,1.23c9-1.17,18-2.9,26.91-4.54a56.6,56.6,0,0,0,7.44-2.22c1.11-.37,3-.9,3-1.46a14.63,14.63,0,0,0-.87-5.05,9.89,9.89,0,0,0-1.47-2.31c4.26,1.32,4.37,1.45,4.36,5.58s.51,8.17-1.77,11.75a22.3,22.3,0,0,1-4.37,4.53c-2.62,2.26-5.42,4.3-6.52,7.82-1,3.23,1,6.48,4.42,6.39,7.8-.21,15.6-.55,23.37-1.26,1.31-.12,3.47-2.36,3.43-3.57-.1-3.15,1.78-4.82,3.76-6.19,4.18-2.89,4.91-6.91,4.24-11.36-1-6.76-.55-12.79,4.51-18.23,4.13-4.45,7.89-9.41,8.92-15.82.1-.64,1.75-1.4,2.74-1.48,2.95-.24,4.14-1.23,4.49-4.13a16.82,16.82,0,0,0-3.86-13.08c-3.92-4.78-8-9.49-12.24-13.94a39.77,39.77,0,0,0-19.12-10.88c-5.67-1.5-11-4.32-16.33-7-9.2-4.62-18.32-4.84-27.23.23-3.32,1.89-6,4.9-8.93,7.48-2.06,1.82-4,3.76-6,5.66Z"/><path class="cls-2" d="M815.56,509c-.5,2.2-1,4.4-1.48,6.61a11.59,11.59,0,0,0-.15,1.32l.67.56a20.91,20.91,0,0,1,1.62-2.32c.22-.26.81-.21,1.23-.3,0,.47.28,1,.12,1.41a15.58,15.58,0,0,1-1.23,2.27c-1.49,2.54-1.47,3.12.64,5.16,2.45,2.36,4.68,4.83,5.71,8.17.13.44.26.88.36,1.2l1.13-1.51a5.27,5.27,0,0,1,.74,1.84c0,1.79.38,2.86,2.49,2.64a10.29,10.29,0,0,1,2.77.39c2.73.52,3.19.27,4.21-2.26a2,2,0,0,1,1.24-1.06l.58,3a44,44,0,0,1,3.9-4.37,29.36,29.36,0,0,1,5.15-3.46c2.92-1.61,3.42-2.5,2.55-5.58a7.38,7.38,0,0,1-.51-1.5,5,5,0,0,1,.42-1.54,5.32,5.32,0,0,1,1.37.83,11.49,11.49,0,0,1,1.07,1.84l.56,0c.13-2,.58-4.1.29-6.07-.24-1.63.39-1.55,1.51-1.52,1.59,4.58,1.57,9.05-1.88,12.68a19.75,19.75,0,0,1-6.77,4.49c-3.42,1.41-5.07,4.08-7,7.71l14.67-.91c-.18,3.44-2.25,4.9-4.82,6.06-2.75,1.24-5.22.46-7.79-1a49.19,49.19,0,0,0,3.74,20.24c.77,1.91,1.84,3.7,2.78,5.54A2.67,2.67,0,0,0,849,571.1c4.82-1.73,9.52-1.56,14.57-.49,3.71.78,7.82,0,11.7-.41,9.8-1.13,19.61-2.42,29.08,1.51,5.3,2.2,10.17,5.17,13.62,10,1.88,2.65,1.69,5.63,1.49,8.57-.08,1.07-1,1.76-2.24,1-.51-.31-1-.66-1.66-1.11-.44,4.1-2.33,7.34-5,10.39-2.38,2.73-1.61,6.16-.37,9.17.87,2.13,2.45,4,3.64,6a4.69,4.69,0,0,1,.74,2.16c.06,5.11.43,10.27-.09,15.33a23.42,23.42,0,0,0,1.78,11.1c.42,1.11.36,1.57-1,1.86-3.8.77-4.17.7-4.66-3.08-.43-3.33-.54-6.71-.88-10.06-.49-4.83-1.12-9.68-5.14-13.09-1.82-1.54-3.9-2.78-6-4.26-1.22,2.57-2,5-.69,7.63-4.26,1.42-4.9,5.3-6.09,8.68a31.18,31.18,0,0,0-1.56,7,32.8,32.8,0,0,0,.38,5.74h-4.43c-.76-4.87.38-9.49,1.63-14.1.79-2.88,1.74-5.73,2.43-8.65a9.18,9.18,0,0,0-.24-3.1c-.48-3.49-1-7-1.56-10.93l2,1c-1.32-1.81-2.21-3.19-3.29-4.42a2.4,2.4,0,0,0-1.8-.54c-3.94.33-7.87,1-11.81,1.05-3,0-6.15-.47-8.31-3.4-.13,2.82.08,5.5-.44,8-.94,4.62-2.31,9.16-3.48,13.73a12.15,12.15,0,0,0-.3,2c-.41,4.62-1,9.24-1.13,13.86,0,2.27.87,4.56,1.34,6.83.09.39.15.79.24,1.28a6,6,0,0,1-.7.32c-3.37,1.12-4.45.5-4.63-3-.23-4.54-.36-9.08-.42-13.62-.07-5.88.09-11.77-.06-17.64-.08-2.77-.66-5.52-1-8.5-5,1.47-9.6,2.86-14.2,4.13a2.19,2.19,0,0,0-1.93,2.57c.19,2.49.29,5,.42,7.49,0,.41,0,.82,0,1.23,0,1.09-.4,2.5.14,3.19s2.18.32,3,.91a7,7,0,0,1,2.12,2.9,14,14,0,0,1,.4,3.61,44.81,44.81,0,0,1-5.67-1.16c-3.43-1.17-4.72-3.5-4.92-7.18-.22-4-.84-7.88-1.14-11.83-.3-3.79.07-5.88,4-7.93,2.24-1.15,4.45-2.34,7.08-3.72-2.1-2-3.64-4.05-5.65-5.31A17.93,17.93,0,0,1,830,581.81c-.93-4.51-1.21-9.16-1.72-13.75a12.28,12.28,0,0,1,.16-2.22.28.28,0,0,0-.2-.08c-5.76.54-6.3-.07-6.15-5.38a40.37,40.37,0,0,0-.45-7.46c-.22-1.36-1.25-2.58-1.85-3.88a8.39,8.39,0,0,1-.9-2.57c-.14-1.76,0-3.53,0-5.21-.25-.15-.36-.28-.46-.27-5.52.48-7.93-1-10-6.32a8.73,8.73,0,0,1-.24-2.42,10,10,0,0,1,2.54.56c2.31,1.14,4.49,2.59,6.86,3.58,1.17.49,2.65.24,4.15.34a11.33,11.33,0,0,0-4.48-9.07c-6.26-5-7.77-12.14-2.86-18.63Z"/><path class="cls-2" d="M708.47,650.86a19.09,19.09,0,0,1-2.69,1,10.43,10.43,0,0,1-10.66-4.9c-2.62-4.76-7.21-6-11.94-6.19-6-.3-11.85-.63-17.48-3a23.66,23.66,0,0,1-11.77-10.68c-2.19-4-4.35-7.92-6.77-12.33-.62,2.49-1.19,4.45-1.59,6.45-1.15,5.7-4.62,10.12-8.2,14.37a14,14,0,0,0-3.6,9.3c.07,6.25.71,12.48.87,18.73,0,1.46-.84,3-1.32,4.43-.58,1.76-1.31,3.49-1.73,5.29-.93,3.94-1.39,8-2.65,11.84-1.35,4.1-11.17,5.94-14.29,5a3.77,3.77,0,0,1-2.74-4c.13-1.84.46-4.14,2.73-4.61,1.94-.39,2.62-1.7,3.43-3.1,2.92-5,4.07-10.54,4.93-16.14,1.74-11.38-2.54-20.86-9.63-29.39-.62-.75-1.39-1.38-2-2.13a5.07,5.07,0,0,0-1.92-1.83l3.53,6.27c-1.49.68-3,1.34-4.42,2-7.91,3.67-15.73,7.57-23.76,11-6.3,2.65-13.13,2.18-19.81,2a2.3,2.3,0,0,1-1.63-1.29,83.53,83.53,0,0,0-3-8.13c.5,3.34,1,6.68,1.52,10,1.25,7.75,4.31,15.23,3.46,23.28-.55,5.14-2,10-5.82,13.67a8.88,8.88,0,0,1-4.61,2,45.68,45.68,0,0,1-9.2.39,4.2,4.2,0,0,1-3.05-2.35c-.34-1.06.41-2.64,1.05-3.78a3.54,3.54,0,0,1,2.31-1.61c5-.42,6.22-4.37,6.87-8,1.75-9.78-2.77-17.65-8.29-25.25-.42,3.53-.86,6.71-1.15,9.91-.41,4.64-.67,9.3-1.08,13.94a86.57,86.57,0,0,1-1.09,9.1c-1,5.2-8.9,9.5-13.71,7.34-1.42-.64-3.19-2.73-3.08-4a6.61,6.61,0,0,1,3.2-4.6c5-2.39,5.56-2.3,5-7.93s-2.15-11.45-3.27-17.17c-.46-2.29-.9-4.59-1.4-7.17l-2.84,2.48c-2.11-5-3.78-10.19-6.47-14.82-2.27-3.89-5.92-6.94-8.61-10.61-4.68-6.42-5.45-13.67-3.75-21.28.13-.59.18-1.21.3-1.8s.29-1.11.62-2.31a36.81,36.81,0,0,0-4.17,1.51,5.34,5.34,0,0,1-7.61-2.49,31.17,31.17,0,0,0-2.09-3.1c-1.78-2.75-1.57-5,.67-7.3a40.24,40.24,0,0,0,3.18-3.22c1.21-1.54,2-3.42,3.35-4.83,2-2.09,4.24-3.89,6.74-6.14-.56-2.82-2.68-5.3-5.76-7.09-1.83-1.06-1.74-1.68,0-2.87,3.63-2.53,7.73-2,11.76-2,1.35,0,2.64.25,3.66-1.33a3.55,3.55,0,0,1,3.2-1.22c4.74,2,9.85,1.38,14.72,2.45,8,1.74,14,6.21,18.63,12.69a30.1,30.1,0,0,0,10.09,9.37c3.12,1.71,6.26,3.68,8.58,7.19l-3.63.35c4.5,1,8.83,2.41,13.26,3a80.24,80.24,0,0,0,14,.54A140.52,140.52,0,0,0,610.68,594c7.21-1.12,14.29-1.48,21.09,1.89a46,46,0,0,0,4.37,1.7c8.1,3,11.9,10.24,16.17,16.89,3,4.6,5.35,9.59,8.19,14.28,2.54,4.2,6.8,5.81,11.36,6.6,5.93,1,11.92,1.71,17.84,2.8,1.72.31,3.22,1.69,4.93,2.27,1.87.64,3.88.86,5.8,1.39a20.16,20.16,0,0,1,5.11,1.81c1.09.66,3.1,1.63,1.22,3.69-.15.17,1.11,1.62,1.71,2.48Z"/></svg>