<svg id="Layer_1" data-name="Layer 1" xmlns="http://www.w3.org/2000/svg" viewBox="0 0 512 512"><defs><style>.cls-1{fill:#fff;stroke:#000;stroke-miterlimit:10;}</style></defs><title>antelope</title><path class="cls-1" d="M87.88,18.13c-1.67,7.45-3.38,14.89-5,22.35A41.46,41.46,0,0,0,82.39,45l2.24,1.9A75,75,0,0,1,90.11,39c.78-.88,2.75-.7,4.18-1,.18,1.6.93,3.42.42,4.76a53.74,53.74,0,0,1-4.19,7.69c-5,8.58-5,10.55,2.19,17.44,8.27,8,15.83,16.34,19.28,27.63.46,1.49.91,3,1.23,4.06L117,94.47c.89,2.08,2.57,4.18,2.52,6.23-.15,6.06,1.27,9.67,8.42,8.93,3.05-.32,6.26.74,9.37,1.33,9.23,1.74,10.79.9,14.26-7.64.53-1.32,1.5-2.46,4.18-3.61l2,10.25c4.34-5,8.24-10.48,13.19-14.78a100.71,100.71,0,0,1,17.4-11.7C198.24,78,199.92,75,197,64.63c-.49-1.73-1.68-3.38-1.73-5.09s.89-3.46,1.4-5.2c1.58.91,3.53,1.51,4.65,2.81,1.54,1.79,2.43,4.12,3.61,6.21l1.91-.07c.44-6.86,2-13.87,1-20.52-.81-5.51,1.33-5.24,5.1-5.15,5.38,15.48,5.31,30.62-6.34,42.9a67.34,67.34,0,0,1-22.91,15.19c-11.58,4.74-17.14,13.78-23.73,26.07l49.6-3.09c-.6,11.63-7.61,16.59-16.31,20.51-9.27,4.17-17.64,1.55-26.34-3.44-.8,24.43,4,46.84,12.67,68.46,2.59,6.46,6.2,12.51,9.38,18.73,2.55,5,6.67,7,11.94,5.11,16.31-5.82,32.22-5.26,49.29-1.64,12.55,2.65,26.44.12,39.58-1.39,33.14-3.83,66.33-8.18,98.35,5.1,17.94,7.43,34.39,17.5,46.06,33.87,6.37,8.95,5.72,19,5,29-.25,3.59-3.42,5.92-7.57,3.38-1.72-1.06-3.35-2.25-5.6-3.78-1.5,13.86-7.9,24.85-16.86,35.16-8,9.24-5.43,20.82-1.25,31,3,7.2,8.29,13.4,12.31,20.2a15.82,15.82,0,0,1,2.5,7.32c.21,17.29,1.45,34.73-.31,51.84-1.4,13.52,1.45,25.47,6,37.55,1.43,3.77,1.23,5.31-3.47,6.27-12.87,2.62-14.11,2.38-15.77-10.4-1.46-11.28-1.81-22.7-3-34-1.67-16.35-3.78-32.75-17.39-44.28-6.16-5.22-13.19-9.4-20.34-14.41-4.14,8.7-6.63,16.94-2.36,25.81-14.39,4.79-16.57,17.92-20.6,29.36a105.21,105.21,0,0,0-5.27,23.71c-.65,6.18.77,12.58,1.3,19.41h-15c-2.56-16.47,1.29-32.11,5.53-47.67,2.67-9.78,5.88-19.41,8.2-29.26.77-3.26-.32-7-.8-10.51-1.62-11.8-3.35-23.59-5.26-36.95l6.84,3.53c-4.45-6.09-7.48-10.79-11.13-14.94-1.2-1.37-4.06-2-6.06-1.83-13.34,1.11-26.64,3.46-40,3.55-10.19.06-20.82-1.58-28.09-11.47-.44,9.53.24,18.59-1.5,27.16-3.18,15.64-7.82,31-11.78,46.46a42.74,42.74,0,0,0-1,6.68c-1.4,15.63-3.47,31.24-3.8,46.9-.17,7.66,2.92,15.4,4.53,23.1.27,1.32.49,2.65.8,4.33-.88.4-1.6.81-2.38,1.07-11.4,3.78-15,1.67-15.65-10.08-.8-15.34-1.23-30.71-1.41-46.08-.24-19.88.3-39.78-.23-59.65-.25-9.36-2.22-18.67-3.51-28.75-17,5-32.45,9.67-48,14-4.83,1.33-6.86,3.73-6.49,8.71.62,8.43,1,16.88,1.4,25.32.08,1.38,0,2.77,0,4.15,0,3.7-1.33,8.47.47,10.79s7.39,1.09,10.12,3.08a23.6,23.6,0,0,1,7.19,9.82c1.31,3.17.86,7.08,1.33,12.2-6.49-1.28-13.09-1.84-19.17-3.92-11.59-4-16-11.82-16.66-24.29-.73-13.36-2.82-26.64-3.85-40-1-12.83.26-19.89,13.69-26.81,7.55-3.9,15-7.92,23.92-12.61-7.09-6.8-12.28-13.68-19.11-18-15.51-9.72-24.5-23.74-28-40.87-3.12-15.26-4.06-31-5.81-46.51-.27-2.4.34-4.89.56-7.52a1,1,0,0,0-.67-.25c-19.5,1.82-21.31-.24-20.83-18.22a134.6,134.6,0,0,0-1.51-25.23c-.76-4.59-4.22-8.7-6.24-13.13-1.28-2.8-2.82-5.73-3.06-8.69-.48-5.93-.14-11.92-.14-17.59-.84-.52-1.21-1-1.55-.93-18.66,1.62-26.84-3.42-33.9-21.37-1-2.46-.57-5.46-.8-8.2,2.88.59,6,.62,8.59,1.89,7.83,3.87,15.18,8.77,23.2,12.13,4,1.66,9,.81,14.06,1.13-.54-13.73-5.84-23.29-15.17-30.68-21.19-16.78-26.3-41-9.68-63Z"/></svg>