<svg id="Layer_1" data-name="Layer 1" xmlns="http://www.w3.org/2000/svg" viewBox="0 0 512 512"><defs><style>.cls-1{fill:#fff;stroke:#000;stroke-miterlimit:10;}</style></defs><title>elephant</title><path class="cls-1" d="M19.5,281.17c5.62,12.42,25.71,15.45,38.1,5C68,277.42,73,265.73,74.48,252.32c1.69-15.28,8.63-27.17,23.93-35.73.43,4.79.3,8.35,1.11,11.69,2,8.29,4.94,16.36,6.61,24.69,1.26,6.36,3.39,13.91,1.16,19.27-4.41,10.56-10.81,20.56-17.88,29.65-5.08,6.54-6.06,12.91-5.71,20.57.3,6.32,1,13.63-1.71,18.9-5.12,10.15-5.1,20.31-4.75,31,.19,5.54,2.23,9.46,7.44,10a370.2,370.2,0,0,0,37.62,2.33c5.14,0,8.18-4.13,5.29-9.88-1.78-3.55-3.32-7.31-5.68-10.45-8.68-11.54-9.68-21.92-2.3-34.41,5-8.51,10.58-16.71,16.18-25.52,2.15,2.17,2.87,2.56,2.91,3a67.19,67.19,0,0,0,4,17c.1.26.19.52.28.78,2.14,5.67,4.77,11.33,7.5,17.4,5.3,11.79,8.58,24.85,10.46,37.69,1.17,7.92,3.26,13.71,11,14.52a193.58,193.58,0,0,0,34.54.84c5.71-.45,8.81-5.57,4.88-11.74-7.22-11.34-14.16-22.87-22-33.82-9.24-13-8.94-26.92-5.67-41.37,1.55-6.86,3.6-13.61,5.58-21.07h52.11c.72-1,1.44-2,2.17-3,.65,5.1,1.87,10.22,1.78,15.3-.15,8-1.69,16-1.76,24A51.05,51.05,0,0,1,234,354.12c-5.75,8.11-11,18.24-6,27.51,4.88,9.07,16.1,9.11,25.75,9.35a109.27,109.27,0,0,0,14.8-.74c8.5-1,12.21-7.38,7.14-14.13-8.62-11.47-8.87-21.76-.18-33.27,3-3.91,3.52-9.72,4.89-14.74,4.53-16.49,8.93-33,13.32-49.4,7.24,2.61,12.34,4.15,17.14,6.32A42.83,42.83,0,0,1,320,290.9c10,8.11,19.4,17,29.85,24.47,10.74,7.66,12.13,9.59,8.33,22-5.2,16.93,6.17,29.79,25.71,29,3.34-.12,6.71,0,10-.4,7.79-.91,8.79-4.29,6.87-11.78-2.23-8.72-3.83-18-3.4-26.9.45-9.42-1.22-17.23-8.33-23.32-13.24-11.39-21.89-25.43-27.06-42.14-2.23-7.2-7.18-13.54-10.67-20.39-1.19-2.34-3-5.64-2.24-7.46,3.39-7.64,7.68-14.87,12.35-23.61l7.81,14.13c4.92-9.55,8.79-17.1,13.52-26.28,13.58-.74,28.83-1.58,44.06-2.39l1.84.94c0-.09,0-.16-.06-.26.07.1.15.19.22.3l.32.05a124.59,124.59,0,0,1,3.1,13.56,28.86,28.86,0,0,1-5.59,22.08c-2.63-1.39-7-2.69-7.05-4.19a36.22,36.22,0,0,1,2.47-14.47c.72-1.86,4.64-2.51,7.09-3.69l-2.06-3.6-8.74-3.49c0,2.23.89,5.14-.18,6.51-4.29,5.47-5.37,16.42-1.06,21.46,2.17,2.53,4.67,5.61,7.94,3.45h0a.14.14,0,0,0,.07.06l-.17.19c1.51-.64,3.4-.93,4.31-2.05,7.31-8.86,7.49-25.22,1-35.57L465.64,204l-8.51,2.3c2.73,2,4.73,3.43,8,5.76l-9.3,2.71,2.21.63c-2.32,6.46-3.4,13.84-7.29,19.13a77.5,77.5,0,0,1-19,17.94c-8.61,5.78-30.44-6.5-27.49-20.13,2-9.2,4.28-18.33,6.45-27.49-3.17,10.2-7.92,20.22-9.07,30.64-1.35,12.12,15.4,24.88,28,23,16.54-2.49,27.13-12.14,32.24-27.88,3-9.26,5.65-18.61,8.58-28.27C479,199,495.16,199.12,501,187.45c-4.08,2-11.8,8.63-16.12,9.67-19.77,4.8-39.05,2.5-57.71-5.48.08-2.69-.87-6.86.45-7.79a12.42,12.42,0,0,1,9.18-1.61c5.56,1.41,10.79,4.06,16.16,6.21-.1,0-.15-.11-.25-.15,12.51,5.07,35.51,4.22,48.29-.85-7.14.41-24.69,2.6-31.83,3l.05-2.23,21.3-3.65c-14.3,2.41-26.23.89-31.22-16.55-1.22-4.25-6.75-7.27-10.61-10.76.17.19.31.37.46.56-.74-.17-1.5-.34-2.24-.49L441.86,160l11.32,2.19c-3.84,1.74-6,2.72-9.8,4.41,4.6,0,7.55-.35,10.26.24.73.17.8,3.29,1.49,6.53,1.55,3.66,3.67,8.61,6.21,14.51-3.51.15-6.12.26-8.72.39a.15.15,0,0,0,.08,0,.28.28,0,0,1-.12,0h0c-4.54-2.76-8.88-6-13.76-8-3-1.22-8.55-1.87-10.15-.17-8.79,9.37-14.39,2.47-21.67-2.46,1.25,2,2.42,4,3.73,5.93,1.56,2.28,3.23,4.49,4.84,6.72-3.46-3.23-6.84-6.51-10.38-9.63-4.05-3.6-7.74-9.85-16.31-1.2,11-1.1,14.54,3.87,15.56,11.89-3.74,1.24-7.43,3.2-11.27,3.59-12.77,1.25-26.44-.33-34.4,14.18,3-18.09-9.44-35.21.58-52.43-2.88,2.49-5.88,5.14-6.16,8-.72,7.58-.26,15.28-.26,22.94v32.06c-13-1.91-24.19-1.49-27.27-15.14-.41-1.76-2.61-3.47-4.38-4.53-6.88-4.1-16.28-5.45-16.76-16.21,0-.59-1.23-1.52-2-1.65-7.73-1.32-13.41-5.1-19.76-10.22-8.14-6.57-14.41-14-14.63-23-.26-11,3.62-22.21,6.47-33.13.71-2.69,4-5.68,6.76-6.72,20.1-7.51,40.27-11.5,61.91-4.88,10.23,3.12,17.37,7,19.3,17.85a17.41,17.41,0,0,1,0,2.84c-1.79-1.9-3.21-3.38-4.16-4.38-2.28,7.77-4.43,15-6.57,22.26,3.55-3,5.12-7.79,8.11-9,8.2-3.34,7.05-8.94,5.29-15.08-1.06-3.65-2.64-7.16-4.72-12.69,9.08,1.14,17.2.6,24,3.36,12,4.88,23.28,11.71,34.84,17.75l-.17-.2.35.28-.16-.48c.2.22.39.46.57.68v0c.69.85,1.26,1.54,1.26,1.56,3.38,4,7,7.9,10,12.19,1.67,2.39,2.28,5.52,3.75,9.29,1.06.22,4.34.95,7.62,1.67l-2.26,3.73,6.55,1.44,1.19-.63a7.91,7.91,0,0,0,.59.56c-4.81-5.82-9.37-11.85-14.54-17.33-3.36-3.56-10.45-10.22-15-14.17-.26-1.07-.52-2.15-1.21-2.56-17.86-10.83-35-21.9-58.23-18.64-10.79,1.52-22.54-4.27-34-6-6.12-.94-12.63-1.39-18.66-.31a140.38,140.38,0,0,0-26.57,7.66c-3.76,1.48-6.58,5.73-9.38,9.09-1.3,1.56-1.51,4-2.21,6.05-2.17,6.27-3.19,17-6.77,17.9-8.44,2.22-18.72,1.63-27.16-1.14-25.5-8.32-50.88-8.38-76.67-2.69-28.53,6.31-46.52,25.1-59.93,49.68a57.66,57.66,0,0,1-11,14.58c-14.86,13.84-20.85,31.59-24.14,50.83-2.65,15.6-11,24-26.54,27.23C31,278.61,25.21,279.92,19.5,281.17Zm345.19,65c1.32-4.23,3-8.35,5-13.53,1.3,4.08,3.14,7.24,3,10.28-.11,2-3.08,3.84-5,5.45C367.38,348.56,364.56,346.57,364.69,346.15ZM299,239.74c.7-.24,1.41-.48,2.11-.7,1.17,3,3.12,5.9,3.32,8.94.6,8.53,2.88,15.32,11.43,19.51,2.87,1.41,4.1,6.22,6.81,10.63-8.11-.63-15.2.17-17.25-8.1C303,260,301.14,249.84,299,239.74Zm-23.17,30.69a1.22,1.22,0,0,1,.17-.15c.13,0,.27,0,.4,0,10.61-2.09,13.69-10.16,14.25-20.25l2.28.37c1.43,6.53,2.88,13.08,4.77,21.76-8.55-.74-14.93-1.32-21.3-1.88Zm-4.18-8.54c11-9.79,10.78-22,9.56-35.06-.52-5.65,2.15-11.61,3.37-17.42l2.51.62c.48,7.57.63,14.13.43,19.81,0,1.19-.1,2.34-.17,3.43C286.27,249.93,281.5,258.18,271.68,261.89Zm-23.83,62.63c.76.22,1.5.46,2.24.7-.31.73-.63,1.45-.94,2.17C248.72,326.43,248.27,325.48,247.85,324.52ZM173.56,193.93c9.46,1,5.1,8.16,5.15,11.85l12.63-10.35c.62.83,1.23,1.69,1.84,2.52-14.34,13.65-17.31,30.44-12.8,49.36C170.7,230,171.16,211.9,173.56,193.93Zm-27.11-17.05c-.4-14.43,10.24-27.7,20.45-27ZM110,367.74q.19,1,.36,2c-2.19,3.38-4.38,6.75-7.37,11.33L90.9,377.85l1-2.82,4.08,2Z"/></svg>