<svg id="Layer_1" data-name="Layer 1" xmlns="http://www.w3.org/2000/svg" xmlns:xlink="http://www.w3.org/1999/xlink" viewBox="0 0 1368 489"><defs><style>.cls-1{fill:url(#linear-gradient);}.cls-2{fill:#fff;stroke:#000;stroke-miterlimit:10;}</style><linearGradient id="linear-gradient" x1="607.85" y1="616.78" x2="723.11" y2="74.5" gradientUnits="userSpaceOnUse"><stop offset="0.45" stop-color="#28770b"/><stop offset="0.66" stop-color="#2a780b"/><stop offset="0.74" stop-color="#317a0b"/><stop offset="0.8" stop-color="#3c7f0c"/><stop offset="0.84" stop-color="#4d860c"/><stop offset="0.88" stop-color="#638e0d"/><stop offset="0.91" stop-color="#7f990e"/><stop offset="0.94" stop-color="#9fa60f"/><stop offset="0.97" stop-color="#c4b410"/><stop offset="1" stop-color="#edc411"/><stop offset="1" stop-color="#f2c611"/></linearGradient></defs><title>hill-with-animals</title><path class="cls-1" d="M1366,488H2V29C105-37,228,132,382,144c258.92,20.18,338,231.76,534,27,111-116,329,109,450,47Z"/><path class="cls-2" d="M214.44,148.84c2.46,5.44,11.25,6.76,16.67,2.21,4.57-3.85,6.74-9,7.39-14.83.74-6.69,3.77-11.89,10.47-15.63a38.05,38.05,0,0,0,.48,5.11c.89,3.63,2.16,7.16,2.89,10.81.56,2.78,1.49,6.08.51,8.43a58,58,0,0,1-7.82,13c-2.22,2.86-2.65,5.64-2.5,9,.13,2.76.42,6-.74,8.27-2.24,4.43-2.24,8.88-2.08,13.56.08,2.42,1,4.14,3.25,4.37a162,162,0,0,0,16.46,1c2.25,0,3.58-1.81,2.31-4.32a29.55,29.55,0,0,0-2.48-4.57c-3.8-5.05-4.24-9.59-1-15.06,2.2-3.72,4.63-7.31,7.08-11.16.94.95,1.26,1.12,1.27,1.31a29.77,29.77,0,0,0,1.77,7.42l.13.34c.93,2.48,2.08,5,3.27,7.61a62.65,62.65,0,0,1,4.58,16.49c.51,3.47,1.43,6,4.81,6.36a83.89,83.89,0,0,0,15.11.36c2.5-.19,3.86-2.43,2.14-5.13-3.16-5-6.19-10-9.6-14.8-4-5.68-3.91-11.77-2.49-18.1.69-3,1.58-5.95,2.45-9.21h22.79c.32-.44.64-.87.95-1.31a46.36,46.36,0,0,1,.78,6.69c-.06,3.51-.74,7-.77,10.51a22.35,22.35,0,0,1-4.21,13.2c-2.52,3.55-4.83,8-2.64,12s7,4,11.27,4.09a48.26,48.26,0,0,0,6.47-.32c3.72-.43,5.34-3.23,3.13-6.18-3.78-5-3.88-9.52-.08-14.56,1.29-1.71,1.54-4.25,2.14-6.45,2-7.21,3.9-14.45,5.82-21.61,3.17,1.15,5.4,1.82,7.5,2.77a18.73,18.73,0,0,1,4,2.57c4.37,3.55,8.49,7.44,13.06,10.71s5.3,4.19,3.64,9.6c-2.27,7.41,2.7,13,11.25,12.71,1.46-.05,2.94,0,4.39-.18,3.41-.39,3.84-1.87,3-5.15A40.54,40.54,0,0,1,379.76,169c.19-4.12-.54-7.54-3.65-10.2a38.67,38.67,0,0,1-11.84-18.44c-1-3.14-3.14-5.92-4.67-8.91-.51-1-1.33-2.47-1-3.27,1.49-3.34,3.36-6.51,5.41-10.33l3.41,6.19c2.15-4.18,3.85-7.49,5.92-11.5l19.27-1,.81.41,0-.11a.64.64,0,0,1,.1.13l.14,0A54.12,54.12,0,0,1,395,117.9a12.55,12.55,0,0,1-2.44,9.65c-1.15-.6-3.05-1.17-3.08-1.83a15.62,15.62,0,0,1,1.08-6.33c.31-.81,2-1.1,3.1-1.61l-.9-1.58-3.83-1.52c0,1,.39,2.24-.08,2.84-1.87,2.4-2.34,7.19-.46,9.39.95,1.11,2.05,2.45,3.47,1.51h0l0,0-.07.08c.66-.28,1.49-.41,1.88-.89,3.2-3.88,3.28-11,.45-15.57l15.47,3-3.73,1,3.49,2.53-4.06,1.18,1,.28c-1,2.82-1.48,6-3.19,8.37a33.91,33.91,0,0,1-8.32,7.84c-3.77,2.53-13.32-2.84-12-8.8.87-4,1.87-8,2.82-12-1.38,4.46-3.46,8.85-4,13.41-.6,5.3,6.73,10.88,12.23,10.05,7.23-1.09,11.87-5.31,14.1-12.2,1.31-4,2.48-8.14,3.76-12.36,3.78-1.46,10.84-1.42,13.4-6.53-1.79.89-5.17,3.78-7.06,4.23a39.24,39.24,0,0,1-25.24-2.39c0-1.18-.38-3,.19-3.41a5.48,5.48,0,0,1,4-.71,58.49,58.49,0,0,1,7.07,2.72.6.6,0,0,0-.11-.06c5.47,2.21,15.53,1.84,21.13-.38-3.13.18-10.81,1.14-13.93,1.32l0-1,9.32-1.6c-6.26,1.06-11.47.39-13.66-7.23-.53-1.86-3-3.19-4.64-4.71l.2.24-1-.21-2.21,1.15,4.95,1-4.28,1.93a23.63,23.63,0,0,1,4.49.11c.31.07.35,1.43.65,2.85.68,1.6,1.6,3.77,2.72,6.35l-3.82.17,0,0,0,0h0a42.29,42.29,0,0,0-6-3.48c-1.33-.54-3.74-.82-4.44-.07-3.85,4.09-6.3,1.08-9.48-1.08.55.87,1.06,1.75,1.63,2.59.68,1,1.41,2,2.12,2.94-1.52-1.41-3-2.85-4.54-4.21-1.77-1.57-3.39-4.31-7.14-.53,4.8-.48,6.37,1.7,6.81,5.2a24,24,0,0,1-4.93,1.58c-5.59.54-11.57-.15-15.05,6.2,1.3-7.91-4.13-15.4.25-22.94-1.25,1.09-2.57,2.25-2.69,3.52-.32,3.32-.11,6.69-.11,10v14c-5.7-.83-10.59-.65-11.93-6.62-.18-.77-1.15-1.52-1.92-2-3-1.79-7.13-2.39-7.34-7.09,0-.26-.53-.67-.86-.73-3.39-.57-5.87-2.23-8.65-4.47-3.56-2.87-6.3-6.14-6.4-10.06-.11-4.81,1.58-9.72,2.83-14.5a5.26,5.26,0,0,1,3-2.93c8.79-3.29,17.61-5,27.09-2.14,4.47,1.37,7.59,3.06,8.44,7.81a8.45,8.45,0,0,1,0,1.24l-1.81-1.91c-1,3.4-1.94,6.56-2.88,9.73,1.55-1.33,2.24-3.4,3.55-3.94,3.59-1.46,3.08-3.91,2.31-6.6-.46-1.6-1.15-3.13-2.06-5.55,4,.5,7.52.26,10.49,1.47,5.27,2.13,10.19,5.12,15.24,7.77a.31.31,0,0,0-.07-.09l.16.12-.08-.21.25.3h0c.3.37.56.67.56.68,1.47,1.76,3,3.46,4.36,5.33a20.75,20.75,0,0,1,1.64,4.07c.46.09,1.9.41,3.34.73-.32.52-.64,1-1,1.63l2.86.63.52-.28a3.07,3.07,0,0,0,.26.25c-2.1-2.55-4.1-5.19-6.36-7.58-1.47-1.56-4.57-4.47-6.56-6.2-.11-.47-.23-.94-.53-1.12C381,75,373.43,70.15,363.29,71.58c-4.72.67-9.86-1.86-14.86-2.64a25.14,25.14,0,0,0-8.16-.14,61.86,61.86,0,0,0-11.63,3.35c-1.64.65-2.88,2.51-4.1,4a8.38,8.38,0,0,0-1,2.64c-.95,2.75-1.39,7.43-3,7.83a22,22,0,0,1-11.88-.49c-11.16-3.64-22.26-3.67-33.54-1.18-12.48,2.76-20.36,11-26.22,21.74a25.08,25.08,0,0,1-4.81,6.37c-6.5,6.06-9.12,13.82-10.55,22.24-1.17,6.83-4.83,10.49-11.62,11.91C219.47,147.72,216.94,148.3,214.44,148.84Zm151,28.43c.58-1.85,1.32-3.65,2.19-5.92.57,1.79,1.37,3.17,1.3,4.5-.05.85-1.35,1.68-2.2,2.38C366.64,178.32,365.41,177.46,365.46,177.27Zm-28.72-46.55.92-.31c.51,1.3,1.36,2.58,1.45,3.91.26,3.74,1.26,6.71,5,8.54,1.26.62,1.8,2.72,3,4.65-3.55-.28-6.65.07-7.55-3.55C338.46,139.59,337.66,135.13,336.74,130.72ZM326.6,144.14l.07-.06h.18c4.64-.91,6-4.44,6.23-8.86l1,.16,2.09,9.52-9.32-.82Zm-1.83-3.73c4.8-4.29,4.72-9.63,4.18-15.34-.22-2.47.94-5.08,1.48-7.62l1.1.27c.21,3.31.27,6.18.18,8.67,0,.52,0,1-.07,1.5C331.15,135.17,329.07,138.79,324.77,140.41Zm-10.42,27.4c.33.09.65.2,1,.31l-.42.94C314.73,168.64,314.53,168.23,314.35,167.81Zm-32.51-57.14c4.14.43,2.23,3.58,2.26,5.19l5.53-4.53.8,1.11c-6.27,6-7.57,13.31-5.6,21.59C280.59,126.47,280.8,118.54,281.84,110.67ZM270,103.22c-.18-6.32,4.48-12.12,8.94-11.8Zm-16,83.5c.06.29.11.59.16.89l-3.23,5-5.28-1.43c.15-.42.28-.82.43-1.24l1.79.89C250.1,189.32,252.07,188,254,186.72Z"/><path class="cls-2" d="M1156.54,254.33l3.83-5.12c-3.71.32-6.55.66-9.39.79-9.37.43-18.63-.05-27.41-3.88a103.08,103.08,0,0,0-10.76-4.42c-5.36-1.65-10.63-.81-15.68,1.62-6.65,3.21-13.33,6.36-20,9.53a6.27,6.27,0,0,0-1.5.7c-1.71,1.56-3.36,3.2-5.13,4.9-3.71.89-7.93,1.8-12.09,2.94a99,99,0,0,0-12.11,4.16c4.56,4.68,10.29,4.81,16,5.3l-2.69.29c-1,5.07-4.53,8.52-7.68,12.1-3,3.36-6,6.55-7.55,10.92a3,3,0,0,1-2.46,1.19c-4.5-.31-6.72-2.49-8-7.49-.17-.67-.33-1.34-.6-2.45-3.76,8.83-4.43,14.69,5,20.73a4.65,4.65,0,0,1,1.82,2.55c.91,3.68,7,9.06,11,9.31a19.23,19.23,0,0,0,12.44-3.12,9.35,9.35,0,0,0,4.52-7.27c8,.87,15.34.25,20.22-7.74-2.45,3.19-.3,4.92,1.69,6.44,2.81,2.15,4,4.93,4.65,8.35a115.71,115.71,0,0,0,3.46,14.23c.94,3,0,4.86-2.06,6.65-2.3,2-4.28,4.13-3.79,7.65.32,2.35,1.77,4.29,4.22,4.26q10.14-.12,20.27-.57c2.85-.13,4.65-2,5.24-4.84,1.36-.27,2.72-.48,4.07-.81a4.79,4.79,0,0,0,3.46-6c-.71-2.75-1.36-5.53-2.08-8.44l-6.89-1.42c.24,4.48.46,8.78.69,13.07l-.66.07q-1.27-8.44-2.54-16.9c3.62,4.2,8.8,3.77,13.16,4.79a92.93,92.93,0,0,0,32.92,1.22c9-1.17,17.88-2.89,26.79-4.52a55.3,55.3,0,0,0,7.41-2.22c1.11-.37,3-.89,3-1.45a14.52,14.52,0,0,0-.87-5,9.47,9.47,0,0,0-1.46-2.3c4.24,1.32,4.36,1.45,4.34,5.56s.51,8.14-1.76,11.7a21.84,21.84,0,0,1-4.35,4.51c-2.61,2.25-5.4,4.28-6.49,7.79-1,3.22,1,6.45,4.4,6.36,7.77-.21,15.54-.55,23.27-1.25,1.3-.12,3.45-2.36,3.42-3.56-.1-3.14,1.77-4.8,3.74-6.17,4.16-2.87,4.89-6.88,4.22-11.3-1-6.73-.54-12.74,4.49-18.16,4.12-4.43,7.86-9.37,8.88-15.75.11-.64,1.75-1.4,2.73-1.48,2.94-.24,4.13-1.22,4.48-4.11a16.75,16.75,0,0,0-3.85-13c-3.9-4.76-7.92-9.46-12.19-13.89a39.57,39.57,0,0,0-19-10.83c-5.64-1.49-11-4.3-16.26-6.94-9.15-4.6-18.25-4.82-27.11.23-3.31,1.89-6,4.88-8.9,7.44-2,1.82-4,3.76-6,5.64Z"/><path class="cls-2" d="M813.14,226.13c-.5,2.19-1,4.39-1.48,6.58a11.58,11.58,0,0,0-.14,1.32l.66.56a22.12,22.12,0,0,1,1.61-2.31c.23-.26.81-.21,1.23-.3.06.47.28,1,.13,1.4a16.18,16.18,0,0,1-1.24,2.27c-1.48,2.52-1.46,3.1.65,5.13,2.43,2.35,4.66,4.81,5.67,8.14.14.43.27.87.37,1.19l1.12-1.5a5.3,5.3,0,0,1,.74,1.83c0,1.78.37,2.85,2.48,2.63a10.22,10.22,0,0,1,2.76.39c2.71.51,3.17.27,4.19-2.25a2,2,0,0,1,1.24-1.06l.58,3a42.4,42.4,0,0,1,3.88-4.35,29.63,29.63,0,0,1,5.12-3.45c2.92-1.6,3.41-2.49,2.55-5.55a6.33,6.33,0,0,1-.51-1.5,5.2,5.2,0,0,1,.41-1.53,5.16,5.16,0,0,1,1.37.83,10.65,10.65,0,0,1,1.06,1.83l.56,0c.13-2,.58-4.09.29-6-.24-1.63.39-1.55,1.5-1.52,1.59,4.56,1.56,9-1.87,12.63a19.81,19.81,0,0,1-6.74,4.47c-3.41,1.4-5.05,4.06-7,7.68l14.6-.91c-.17,3.42-2.24,4.88-4.8,6-2.73,1.23-5.19.45-7.75-1a48.78,48.78,0,0,0,3.73,20.16c.76,1.9,1.83,3.68,2.76,5.52a2.65,2.65,0,0,0,3.52,1.5c4.8-1.71,9.48-1.55,14.51-.48,3.69.78,7.78,0,11.65-.41,9.76-1.13,19.53-2.41,29,1.5,5.28,2.19,10.12,5.15,13.56,10,1.88,2.64,1.68,5.61,1.48,8.54-.07,1.06-1,1.74-2.23,1-.5-.31-1-.66-1.65-1.11a18.47,18.47,0,0,1-5,10.35c-2.37,2.72-1.6,6.13-.37,9.14.87,2.12,2.44,3.94,3.63,5.94a4.68,4.68,0,0,1,.73,2.16c.06,5.09.43,10.22-.09,15.26a23.64,23.64,0,0,0,1.77,11.06c.42,1.11.37,1.56-1,1.84-3.79.77-4.15.71-4.64-3.06-.43-3.32-.54-6.68-.88-10-.49-4.82-1.11-9.65-5.12-13-1.81-1.54-3.88-2.77-6-4.24-1.22,2.56-2,5-.7,7.6-4.24,1.4-4.88,5.27-6.06,8.64a30.93,30.93,0,0,0-1.56,7,32.51,32.51,0,0,0,.39,5.71H883.4c-.75-4.84.38-9.45,1.63-14,.78-2.88,1.73-5.72,2.41-8.62a8.86,8.86,0,0,0-.23-3.09c-.48-3.47-1-6.95-1.55-10.88l2,1c-1.31-1.79-2.2-3.18-3.27-4.4a2.43,2.43,0,0,0-1.79-.54c-3.93.33-7.84,1-11.76,1.05-3,0-6.13-.47-8.28-3.38-.13,2.81.08,5.48-.44,8-.93,4.6-2.3,9.12-3.46,13.68a11.75,11.75,0,0,0-.3,2c-.41,4.6-1,9.2-1.12,13.81,0,2.26.86,4.53,1.33,6.8.08.39.15.78.24,1.28a5.81,5.81,0,0,1-.7.31c-3.36,1.11-4.43.5-4.61-3-.23-4.52-.36-9.05-.42-13.57-.07-5.86.09-11.71-.06-17.57-.08-2.75-.66-5.49-1-8.46-5,1.46-9.55,2.85-14.14,4.11a2.18,2.18,0,0,0-1.91,2.57c.18,2.48.28,5,.41,7.45,0,.41,0,.82,0,1.22,0,1.09-.39,2.5.14,3.18s2.17.32,3,.91a6.84,6.84,0,0,1,2.11,2.89,13.79,13.79,0,0,1,.4,3.59,44.49,44.49,0,0,1-5.65-1.15c-3.41-1.17-4.7-3.48-4.9-7.16-.22-3.93-.83-7.84-1.14-11.77s.08-5.86,4-7.9c2.23-1.14,4.43-2.33,7-3.71-2.09-2-3.62-4-5.63-5.28a17.91,17.91,0,0,1-8.25-12c-.92-4.49-1.19-9.12-1.71-13.69a11.32,11.32,0,0,1,.17-2.21s-.1-.09-.2-.08c-5.74.54-6.27-.07-6.13-5.36a40,40,0,0,0-.45-7.43c-.22-1.35-1.24-2.56-1.84-3.87a8.16,8.16,0,0,1-.9-2.56c-.14-1.74,0-3.51,0-5.18-.24-.15-.35-.28-.45-.27-5.5.48-7.9-1-10-6.29a8.73,8.73,0,0,1-.24-2.42,10.84,10.84,0,0,1,2.53.56c2.3,1.14,4.47,2.58,6.83,3.57,1.17.49,2.64.24,4.14.33a11.33,11.33,0,0,0-4.47-9c-6.23-4.94-7.74-12.08-2.85-18.55Z"/><path class="cls-2" d="M706.5,367.37a19.45,19.45,0,0,1-2.68,1,10.38,10.38,0,0,1-10.61-4.89c-2.62-4.74-7.18-5.93-11.89-6.16-6-.29-11.81-.63-17.41-3a23.63,23.63,0,0,1-11.72-10.65c-2.18-3.93-4.33-7.88-6.74-12.27-.62,2.48-1.19,4.44-1.59,6.42-1.14,5.68-4.6,10.08-8.17,14.32a13.88,13.88,0,0,0-3.57,9.26c.06,6.21.7,12.42.86,18.64,0,1.46-.84,2.94-1.32,4.41-.57,1.76-1.3,3.48-1.72,5.28-.93,3.92-1.38,8-2.64,11.79-1.34,4.07-11.12,5.91-14.23,5a3.75,3.75,0,0,1-2.73-4c.13-1.83.46-4.12,2.72-4.59,1.93-.39,2.61-1.7,3.42-3.08,2.91-5,4.06-10.51,4.91-16.08,1.73-11.34-2.53-20.78-9.59-29.26-.62-.75-1.38-1.38-2-2.13a5,5,0,0,0-1.91-1.81l3.52,6.24c-1.48.67-2.95,1.33-4.4,2-7.88,3.65-15.66,7.54-23.66,10.9-6.27,2.64-13.07,2.17-19.73,2a2.26,2.26,0,0,1-1.62-1.29,83.73,83.73,0,0,0-3-8.09c.5,3.32,1,6.66,1.51,10,1.25,7.71,4.29,15.17,3.45,23.18-.55,5.12-2,10-5.8,13.61a8.69,8.69,0,0,1-4.58,2,46.16,46.16,0,0,1-9.17.4,4.23,4.23,0,0,1-3-2.35c-.34-1.05.41-2.62,1-3.76a3.47,3.47,0,0,1,2.3-1.6c5-.43,6.2-4.35,6.85-8,1.74-9.74-2.77-17.58-8.26-25.15-.42,3.52-.86,6.69-1.15,9.88-.41,4.62-.67,9.25-1.08,13.87a83.43,83.43,0,0,1-1.08,9.07c-1,5.18-8.86,9.45-13.65,7.31-1.42-.64-3.18-2.72-3.07-4a6.57,6.57,0,0,1,3.19-4.58c5-2.39,5.53-2.29,4.95-7.9s-2.13-11.41-3.25-17.1c-.45-2.29-.89-4.57-1.4-7.14L524,367.62c-2.1-4.94-3.76-10.14-6.45-14.75-2.25-3.87-5.89-6.91-8.57-10.57-4.66-6.39-5.43-13.6-3.73-21.19.13-.59.17-1.2.3-1.79s.29-1.11.61-2.3a36.34,36.34,0,0,0-4.15,1.51,5.31,5.31,0,0,1-7.57-2.49A30.91,30.91,0,0,0,492.3,313c-1.77-2.74-1.56-5,.67-7.27a43.62,43.62,0,0,0,3.17-3.21c1.2-1.53,2-3.4,3.33-4.8,2-2.09,4.22-3.88,6.72-6.13-.56-2.8-2.68-5.27-5.75-7.05-1.82-1.05-1.73-1.68,0-2.86,3.63-2.52,7.7-2,11.72-2,1.35,0,2.63.25,3.64-1.33a3.57,3.57,0,0,1,3.19-1.21c4.72,2,9.81,1.38,14.66,2.43,8,1.74,13.92,6.19,18.55,12.64a30,30,0,0,0,10.05,9.34c3.11,1.7,6.23,3.66,8.54,7.15l-3.61.36c4.47,1,8.79,2.4,13.2,3a79.55,79.55,0,0,0,14,.54,139.38,139.38,0,0,0,14.79-1.77c7.18-1.11,14.23-1.48,21,1.88a44,44,0,0,0,4.35,1.69c8.07,3,11.85,10.2,16.11,16.82,2.95,4.59,5.32,9.55,8.15,14.22,2.53,4.19,6.78,5.79,11.32,6.57,5.9,1,11.86,1.7,17.75,2.79,1.72.31,3.21,1.68,4.91,2.26,1.87.64,3.87.86,5.78,1.38a20.64,20.64,0,0,1,5.09,1.8c1.09.66,3.08,1.63,1.22,3.69-.16.16,1.1,1.61,1.7,2.46Z"/></svg>