<svg id="Layer_1" data-name="Layer 1" xmlns="http://www.w3.org/2000/svg" viewBox="0 0 512 512"><defs><style>.cls-1{fill:#fff;stroke:#000;stroke-miterlimit:10;}</style></defs><title>lion</title><path class="cls-1" d="M503.5,296.68a40.64,40.64,0,0,1-5.81,2.23c-8.26,1.85-18.71-2.84-23-10.58C469.06,278.06,459.17,275.5,449,275c-12.91-.64-25.57-1.36-37.69-6.51a51.09,51.09,0,0,1-25.38-23c-4.72-8.52-9.38-17.08-14.6-26.58-1.34,5.38-2.56,9.61-3.43,13.91-2.48,12.3-10,21.82-17.69,31-5.06,6-7.82,12.68-7.75,20.05.15,13.46,1.52,26.91,1.88,40.38.08,3.15-1.83,6.37-2.86,9.55-1.24,3.81-2.81,7.54-3.73,11.42-2,8.49-3,17.29-5.71,25.53-2.91,8.82-24.08,12.79-30.82,10.84a8.13,8.13,0,0,1-5.9-8.72c.27-3.95,1-8.92,5.88-9.92,4.18-.86,5.65-3.68,7.41-6.69,6.29-10.77,8.78-22.74,10.62-34.82,3.76-24.54-5.48-45-20.76-63.35-1.35-1.62-3-3-4.32-4.61-1.15-1.41-2-3-4.14-3.93L297.59,263c-3.21,1.46-6.37,2.88-9.52,4.34C271,275.27,254.16,283.68,236.83,291c-13.58,5.71-28.3,4.71-42.72,4.41a4.91,4.91,0,0,1-3.5-2.78c-2.07-5.8-3.75-11.73-6.51-17.53,1.09,7.2,2.12,14.42,3.29,21.61,2.7,16.71,9.29,32.85,7.45,50.2-1.17,11.08-4.2,21.58-12.54,29.46a18.88,18.88,0,0,1-9.93,4.38,97.79,97.79,0,0,1-19.86.86c-2.4-.16-5.84-2.83-6.57-5.08s.88-5.68,2.27-8.14a7.54,7.54,0,0,1,5-3.47c10.75-.92,13.43-9.42,14.83-17.28,3.77-21.09-6-38.06-17.88-54.45-.9,7.62-1.86,14.48-2.48,21.38-.9,10-1.45,20-2.34,30A181.58,181.58,0,0,1,143,364.22c-2.23,11.21-19.18,20.47-29.55,15.82-3.07-1.37-6.89-5.89-6.65-8.64.31-3.57,3.61-8.33,6.9-9.91,10.74-5.17,12-5,10.74-17.11-1.29-12.45-4.63-24.69-7.06-37-1-4.94-1.93-9.89-3-15.46l-6.11,5.35c-4.56-10.71-8.16-22-14-32-4.88-8.38-12.76-14.95-18.56-22.88-10.1-13.83-11.75-29.46-8.09-45.88.29-1.28.39-2.6.66-3.88s.63-2.4,1.32-5c-3.63,1.29-6.47,2-9,3.26-6.48,3.35-13.27,1.11-16.4-5.38-1.15-2.4-3.07-4.41-4.52-6.67-3.84-5.93-3.37-10.84,1.44-15.74,2.29-2.33,4.87-4.41,6.87-7,2.6-3.31,4.35-7.37,7.21-10.4,4.25-4.51,9.14-8.4,14.55-13.25-1.21-6.07-5.79-11.43-12.44-15.28-3.94-2.28-3.75-3.63,0-6.2,7.84-5.45,16.67-4.28,25.36-4.36,2.93,0,5.71.52,7.89-2.89,1.11-1.73,5.2-3.34,6.92-2.61,10.21,4.34,21.24,3,31.73,5.26,17.26,3.77,30.14,13.4,40.17,27.37,5.92,8.24,12.64,15.26,21.76,20.22,6.73,3.67,13.49,7.93,18.49,15.49l-7.82.77c9.7,2.25,19,5.19,28.59,6.44a171.89,171.89,0,0,0,30.26,1.17c10.71-.51,21.39-2.2,32-3.85,15.54-2.4,30.82-3.19,45.48,4.08a99.24,99.24,0,0,0,9.42,3.66c17.47,6.53,25.66,22.09,34.88,36.42,6.4,9.93,11.52,20.68,17.65,30.8,5.47,9.06,14.67,12.53,24.5,14.22,12.79,2.2,25.7,3.69,38.45,6,3.72.68,7,3.64,10.64,4.9,4,1.38,8.38,1.85,12.51,3,3.76,1,7.75,1.93,11,3.9,2.36,1.42,6.67,3.52,2.63,8-.33.36,2.39,3.5,3.69,5.35Z"/></svg>