<svg id="Layer_1" data-name="Layer 1" xmlns="http://www.w3.org/2000/svg" viewBox="0 0 512 512"><defs><style>.cls-1{font-size:103.5px;fill:#2b2d2a;stroke:#fff;font-family:Chalkboard-Bold, Chalkboard;font-weight:700;}.cls-1,.cls-2,.cls-3,.cls-4{stroke-miterlimit:10;}.cls-2,.cls-4{fill:#fff;}.cls-2,.cls-3,.cls-4{stroke:#28770b;}.cls-2{stroke-width:0.75px;}.cls-3{fill:#28770b;stroke-width:5px;}.cls-4{stroke-width:3px;}</style></defs><title>logo</title><text class="cls-1" transform="translate(115.28 291.51)">WICS</text><path class="cls-2" d="M225,320.07c-71.29-4.91-150.16,6.24-181.65-34-55.07,8.16-9.92,39.64-16.4,36.28C67.05,343.18,184.05,328.18,225,320.07Z"/><path class="cls-3" d="M440.34,197.83c-91.46-41.28-197.25-32.67-296-41C-1,144.6,12.86,159.5,11.26,199.43,7,306.88,13.88,315.93,13.93,316c22.89,45.25,148.23,52.1,242.75,49.5C518.43,358.35,544.15,244.68,440.34,197.83ZM203.88,352.91c-235-2-80.07-156.61-170.92-197.23-.39-.18,147,2.78,237.47,8.2,162.85,9.77,230.74,57.69,219.2,105.17C473.48,335.51,344.82,354.12,203.88,352.91Z"/><path class="cls-2" d="M227.67,330.19c-71.3-4.92-150.17,6.24-181.66-34-55.07,8.17-9.92,39.65-16.4,36.28C69.72,353.29,186.71,338.29,227.67,330.19Z"/><circle class="cls-4" cx="26.6" cy="238.72" r="5.22"/></svg>