<svg id="Layer_1" data-name="Layer 1" xmlns="http://www.w3.org/2000/svg" viewBox="0 0 512 512"><defs><style>.cls-1{fill:#fff;stroke:#000;stroke-miterlimit:10;}</style></defs><title>rhino</title><path class="cls-1" d="M291.81,150.31l8.52-11.4c-8.26.72-14.56,1.48-20.89,1.77-20.87.95-41.48-.13-61-8.66-7.91-3.45-15.73-7.31-24-9.83-11.93-3.67-23.67-1.8-34.9,3.62C144.73,133,129.86,140,115,147c-1.11.53-2.48.77-3.34,1.56-3.81,3.48-7.49,7.11-11.43,10.9-8.25,2-17.66,4-26.92,6.55a221.24,221.24,0,0,0-26.95,9.26C56.5,185.71,69.25,186,82,187.09l-6,.65c-2.28,11.28-10.07,19-17.1,26.94-6.6,7.48-13.42,14.57-16.81,24.3-.49,1.4-3.64,2.79-5.46,2.66-10-.68-15-5.54-17.77-16.67l-1.35-5.46c-8.36,19.65-9.85,32.7,11.08,46.15a10.35,10.35,0,0,1,4,5.68c2,8.2,15.61,20.18,24.47,20.73,9.92.62,19.17-1.18,27.7-6.95,6-4,9.43-9,10.07-16.19,17.74,1.94,34.15.55,45-17.23-5.46,7.11-.67,10.95,3.77,14.34,6.26,4.79,9,11,10.34,18.59a258,258,0,0,0,7.71,31.68c2.09,6.6,0,10.81-4.58,14.81-5.13,4.52-9.54,9.19-8.45,17,.73,5.22,3.94,9.55,9.4,9.48q22.57-.27,45.14-1.27c6.34-.29,10.35-4.46,11.66-10.78,3-.59,6.06-1.07,9.05-1.8,6-1.45,9.27-7.32,7.7-13.39s-3-12.31-4.61-18.8l-15.35-3.16c.53,10,1,19.54,1.53,29.11l-1.47.15q-2.82-18.82-5.65-37.64c8.06,9.37,19.59,8.41,29.31,10.66,24.11,5.59,48.79,5.89,73.28,2.72,20-2.59,39.82-6.43,59.66-10.05,5.61-1,11-3.14,16.49-4.95,2.46-.81,6.65-2,6.75-3.22.28-3.68-.87-7.55-1.94-11.2-.55-1.87-2.14-3.43-3.26-5.13,9.45,2.94,9.7,3.23,9.67,12.38,0,8.89,1.13,18.12-3.92,26.06-2.45,3.85-6.18,7-9.69,10-5.8,5-12,9.53-14.46,17.34-2.23,7.16,2.25,14.35,9.81,14.15,17.29-.46,34.59-1.22,51.8-2.78,2.91-.27,7.7-5.24,7.61-7.92-.21-7,3.94-10.69,8.35-13.74,9.25-6.4,10.88-15.31,9.38-25.16-2.29-15-1.21-28.36,10-40.42,9.16-9.86,17.49-20.87,19.77-35.07.23-1.44,3.89-3.12,6.07-3.3,6.55-.53,9.19-2.72,10-9.15a37.27,37.27,0,0,0-8.55-29c-8.7-10.59-17.64-21-27.14-30.91-11.67-12.11-25.79-19.76-42.39-24.13-12.56-3.31-24.48-9.57-36.21-15.45-20.38-10.23-40.62-10.73-60.36.52-7.36,4.2-13.34,10.86-19.8,16.57-4.57,4-8.89,8.36-13.33,12.55Z"/></svg>